<?xml version="1.0" encoding="UTF-8"?>
<svg id="_レイヤー_2" data-name="レイヤー 2" xmlns="http://www.w3.org/2000/svg" viewBox="0 0 127.07 176">
  <defs>
    <style>
      .cls-1 {
        fill: #f9f9f9;
      }

      .cls-2 {
        stroke: #f9f9f9;
        stroke-miterlimit: 10;
        stroke-width: 3px;
      }
    </style>
  </defs>
  <g id="_レイヤー_1-2" data-name="レイヤー 1">
    <g>
      <rect class="cls-1" x="53.5" y="51" width="27" height="121"/>
      <path class="cls-2" d="M63,60.5c0,4,0,9,6,18,2.5,3.76,6.05,7.14,10.25,10.05.24.17.5.33.75.5l.16-48.55c-3-1-6.16,0-10.16,3-5.02,3.77-7,10.2-7,17Z"/>
      <circle class="cls-2" cx="31" cy="26.5" r="25"/>
      <path class="cls-2" d="M80,105l-.16-15.95c7.16,6.45,32.19,14.45,41.16,31.45,0,0,14,26-7,46-4.69,4.47-12,8-24,8-2.5,0-7.06-.71-10-1v-4.27c2.73.45,5.46.75,8.16.68,23.16-.59,31.84-28.41,19.84-43.41-7.16-8.94-28.16-21.97-28.16-21.97"/>
      <path class="cls-2" d="M53,167.5c5.79,1.98,11.58,3.41,17.97,4.64,3.16.61,6.12,1.07,8.87,1.38v.62H1.5v-1.65h22.5V50.84c2.25,1.38,10.19.92,16.48.73,2.76-.08,5.49-.52,8.15-1.27,6.84-1.94,19.4-6.11,24.38-11.79,0,0,13-15,41-8l-4.07,14.59s-18.25-6.47-30.09-5.03c-3.84.44-7.84,1.44-14.9,7.48-6.6,5.64-9.76,13.33-9.76,22.73,0,6.31,1.48,11.72,4.43,16.24,2.96,4.52,6.74,8.48,11.35,11.88,2.86,2.11,5.83,4.16,8.87,6.15v64.27c-3.12-.58-6.25-1.5-9.4-2.78-5.8-2.35-11-5.63-15.61-9.84l-1.83,11.31Z"/>
    </g>
  </g>
</svg>