<?xml version="1.0" encoding="UTF-8"?>
<svg id="_レイヤー_2" data-name="レイヤー 2" xmlns="http://www.w3.org/2000/svg" viewBox="0 0 126.63 173.65">
  <defs>
    <style>
      .cls-1 {
        stroke: #e5e3e3;
        stroke-miterlimit: 10;
      }
    </style>
  </defs>
  <g id="_レイヤー_1-2" data-name="レイヤー 1">
    <path class="cls-1" d="M63.81,64.63c0,5.07,1.33,9.43,3.99,13.08,2.66,3.65,6.09,6.93,10.3,9.83.24.17.5.33.75.5v-43.96c-2.93,1-5.54,2.42-7.8,4.3-4.82,4.02-7.24,9.43-7.24,16.24Z"/>
    <path class="cls-1" d="M90.32,37c11.01,0,20.04,3.84,27.09,11.5h1.11l.93-10.39c-3.09-1.61-7.49-2.94-13.18-3.99-5.69-1.05-11.01-1.58-15.96-1.58-4.06,0-7.83.39-11.32,1.15v4.81c3.34-1.14,7.1-1.5,11.32-1.5Z"/>
    <path class="cls-1" d="M121.03,123.5c-3.4-4.6-7.73-8.55-12.99-11.84-5.26-3.29-10.67-6.42-16.24-9.37-4.54-2.35-8.81-4.79-12.8-7.29v14.22c1.95,1.12,3.92,2.22,5.93,3.3,7.67,4.09,13.7,7.9,18.09,11.42,4.39,3.52,7.54,6.99,9.46,10.39,1.92,3.41,2.88,7.1,2.88,11.07,0,7.16-2.6,12.86-7.79,17.12-5.2,4.26-12,6.39-20.41,6.39-2.71,0-5.43-.24-8.16-.68v4.34c2.94.29,5.66.44,8.16.44,7.79,0,14.63-1.36,20.5-4.09,5.87-2.73,10.42-6.5,13.64-11.33,3.22-4.83,4.82-10.42,4.82-16.78,0-6.93-1.7-12.69-5.1-17.29Z"/>
    <circle class="cls-1" cx="30" cy="25.5" r="25"/>
    <path class="cls-1" d="M63.94,46.54c4.13-3.65,9.1-6.14,14.9-7.48v-14.19h-.09c-5.09,16.85-20.73,29.12-39.25,29.12-6.46,0-12.57-1.5-18-4.16v121.66H.5v1.65h78.34v-.62c-2.76-.31-5.71-.77-8.87-1.38-6.39-1.23-12.48-2.84-18.27-4.82l1.06-11.13h1.06c4.61,4.21,9.81,7.49,15.61,9.84,3.15,1.28,6.29,2.2,9.4,2.78v-64.27c-3.05-1.99-6.01-4.04-8.87-6.15-4.61-3.4-8.4-7.36-11.35-11.88-2.96-4.51-4.43-9.93-4.43-16.24,0-9.4,3.25-16.98,9.76-22.73Z"/>
  </g>
</svg>