<svg width="338" height="155" viewBox="0 0 338 155" fill="none" xmlns="http://www.w3.org/2000/svg">
<rect width="338" height="155" fill="#222222"/>
<path d="M111.056 90H108.464V68.432H111.728L117.136 77.52L122.608 86.864C122.523 84.7947 122.48 81.6907 122.48 77.552V68.432H125.072V90H121.808L116.4 80.976C115.312 79.1627 114.309 77.4773 113.392 75.92C112.475 74.3413 111.824 73.2107 111.44 72.528L110.896 71.536C111.003 73.7547 111.056 76.88 111.056 80.912V90ZM144.139 81.936C144.139 84.3467 143.457 86.3413 142.091 87.92C140.726 89.4987 138.849 90.288 136.459 90.288C134.134 90.288 132.289 89.5093 130.923 87.952C129.579 86.3733 128.907 84.3893 128.907 82C128.907 79.5893 129.601 77.584 130.987 75.984C132.395 74.3627 134.219 73.552 136.459 73.552C138.913 73.552 140.801 74.3413 142.123 75.92C143.467 77.4987 144.139 79.504 144.139 81.936ZM131.531 81.968C131.531 83.6533 131.979 85.0933 132.875 86.288C133.771 87.4613 134.966 88.048 136.459 88.048C138.081 88.048 139.329 87.472 140.203 86.32C141.078 85.1467 141.515 83.696 141.515 81.968C141.515 80.176 141.099 78.704 140.267 77.552C139.435 76.3787 138.166 75.792 136.459 75.792C134.923 75.792 133.718 76.3893 132.843 77.584C131.969 78.7787 131.531 80.24 131.531 81.968ZM158.305 90H155.777V73.776H158.305V90ZM158.209 67.504C158.529 67.824 158.689 68.2187 158.689 68.688C158.689 69.1573 158.529 69.552 158.209 69.872C157.889 70.1707 157.494 70.32 157.025 70.32C156.555 70.32 156.161 70.1707 155.841 69.872C155.542 69.552 155.393 69.1573 155.393 68.688C155.393 68.2187 155.542 67.824 155.841 67.504C156.161 67.184 156.555 67.024 157.025 67.024C157.494 67.024 157.889 67.184 158.209 67.504ZM184.813 90H182.285V79.504C182.285 77.0507 181.251 75.824 179.181 75.824C178.157 75.824 177.24 76.2933 176.429 77.232C175.619 78.1493 175.213 79.4507 175.213 81.136V90H172.685V79.504C172.685 77.0507 171.651 75.824 169.581 75.824C168.557 75.824 167.64 76.2933 166.829 77.232C166.019 78.1493 165.613 79.4507 165.613 81.136V90H163.117V73.776H165.613V76.4C166.509 74.5013 168.035 73.552 170.189 73.552C172.685 73.552 174.264 74.608 174.925 76.72C175.395 75.696 176.045 74.9173 176.877 74.384C177.731 73.8293 178.68 73.552 179.725 73.552C181.411 73.552 182.68 74.032 183.533 74.992C184.387 75.952 184.813 77.2427 184.813 78.864V90ZM194.265 88.048C195.417 88.048 196.334 87.728 197.017 87.088C197.699 86.4267 198.041 85.5947 198.041 84.592V82.512H195.225C193.859 82.512 192.835 82.7787 192.153 83.312C191.47 83.8453 191.129 84.5173 191.129 85.328C191.129 86.1387 191.395 86.8 191.929 87.312C192.462 87.8027 193.241 88.048 194.265 88.048ZM198.073 88.08C197.241 89.4667 195.726 90.16 193.529 90.16C192.014 90.16 190.787 89.712 189.849 88.816C188.931 87.92 188.473 86.7893 188.473 85.424C188.473 83.8667 189.059 82.6613 190.233 81.808C191.427 80.9333 193.049 80.496 195.097 80.496H198.041V79.664C198.041 78.384 197.753 77.424 197.177 76.784C196.601 76.1227 195.63 75.792 194.265 75.792C192.537 75.792 191.001 76.2507 189.657 77.168V74.64C190.873 73.8933 192.473 73.52 194.457 73.52C198.531 73.52 200.569 75.5893 200.569 79.728V90H198.073V88.08ZM218.143 88.688C218.143 91.1627 217.46 93.0187 216.095 94.256C214.729 95.5147 212.969 96.144 210.815 96.144C208.852 96.144 207.177 95.8133 205.791 95.152V92.624C207.156 93.4133 208.756 93.808 210.591 93.808C212.148 93.808 213.375 93.392 214.271 92.56C215.167 91.728 215.615 90.4267 215.615 88.656V86.832C214.548 88.6667 212.959 89.584 210.847 89.584C208.991 89.584 207.401 88.9013 206.079 87.536C204.777 86.1707 204.127 84.272 204.127 81.84C204.127 79.4293 204.735 77.4453 205.951 75.888C207.167 74.3307 208.756 73.552 210.719 73.552C212.937 73.552 214.569 74.5227 215.615 76.464V73.776H218.143V88.688ZM206.751 81.776C206.751 83.5893 207.199 84.976 208.095 85.936C208.991 86.8747 210.004 87.344 211.135 87.344C212.308 87.344 213.343 86.896 214.239 86C215.156 85.0827 215.615 83.728 215.615 81.936C215.615 79.8667 215.177 78.3307 214.303 77.328C213.428 76.3253 212.415 75.824 211.263 75.824C209.876 75.824 208.777 76.3787 207.967 77.488C207.156 78.576 206.751 80.0053 206.751 81.776ZM234.457 89.168C233.199 89.8293 231.663 90.16 229.849 90.16C227.396 90.16 225.412 89.4133 223.897 87.92C222.404 86.4053 221.657 84.4107 221.657 81.936C221.657 79.3547 222.329 77.3173 223.673 75.824C225.017 74.3307 226.745 73.584 228.857 73.584C230.884 73.584 232.495 74.2347 233.689 75.536C234.884 76.8373 235.481 78.6827 235.481 81.072C235.481 81.7547 235.428 82.384 235.321 82.96H224.249C224.441 84.56 225.049 85.7867 226.073 86.64C227.097 87.4933 228.441 87.92 230.105 87.92C231.919 87.92 233.369 87.5467 234.457 86.8V89.168ZM228.857 75.792C227.641 75.792 226.607 76.2293 225.753 77.104C224.9 77.9787 224.399 79.2267 224.249 80.848H232.953V80.208C232.953 78.864 232.591 77.7973 231.865 77.008C231.14 76.1973 230.137 75.792 228.857 75.792Z" fill="white"/>
</svg>
