<?xml version="1.0" encoding="UTF-8"?>
<svg id="_レイヤー_2" data-name="レイヤー 2" xmlns="http://www.w3.org/2000/svg" viewBox="0 0 643.46 118.65">
  <defs>
    <style>
      .cls-1 {
        stroke: #0f0f0f;
        stroke-miterlimit: 10;
      }
    </style>
  </defs>
  <g id="_レイヤー_1-2" data-name="レイヤー 1">
    <g>
      <path class="cls-1" d="M39.36,2.5c27.28,0,40.45,11.41,40.45,31.61s-14.44,32.38-41.56,32.38H14.14v49.65H.5V2.5h38.86ZM14.14,56.01h23.48c19.19,0,27.92-8.02,27.92-21.74s-7.93-20.97-26.97-20.97H14.14v42.71Z"/>
      <path class="cls-1" d="M168.01,76.67c0,25.44-14.28,41.48-34.9,41.48s-34.74-15.73-34.74-41.01,14.28-41.48,34.9-41.48,34.74,15.57,34.74,41.01ZM111.54,76.82c0,20.35,8.09,31.61,21.57,31.61s21.73-11.1,21.73-31.61-8.09-31.46-21.57-31.46-21.73,11.26-21.73,31.46Z"/>
      <path class="cls-1" d="M229.88,47.84c-9.99,0-19.83,7.71-24.91,23.13v45.18h-12.85V37.35h12.37v20.04c6.03-15.11,15.7-21.74,26.33-21.74l-.95,12.18Z"/>
      <path class="cls-1" d="M266.68,37.35h19.35v9.71h-19.35v48.57c0,8.79,3.97,12.8,11.26,12.8,3.49,0,6.5-.15,10.15-.92l-.63,9.71c-4.44.62-8.09.77-12.53.77-13.64,0-20.94-6.48-20.94-20.04v-50.88h-13.17v-9.71h13.17V12.83l12.69-2.78v27.29Z"/>
      <path class="cls-1" d="M387.09,10.68c-2.54-.31-4.92-.62-6.98-.62-8.25,0-11.74,3.55-11.74,12.33v14.96h18.08v9.71h-18.08v69.08h-12.69V47.07h-14.28v-9.71h14.28v-15.42c0-14.34,7.77-21.43,22.21-21.43,3.17,0,6.82.31,10.79.77l-1.59,9.41Z"/>
      <path class="cls-1" d="M470.05,76.67c0,25.44-14.28,41.48-34.9,41.48s-34.74-15.73-34.74-41.01,14.28-41.48,34.9-41.48,34.74,15.57,34.74,41.01ZM413.58,76.82c0,20.35,8.09,31.61,21.57,31.61s21.73-11.1,21.73-31.61-8.09-31.46-21.57-31.46-21.73,11.26-21.73,31.46Z"/>
      <path class="cls-1" d="M507.01,116.14h-12.85V.5h12.85v115.64Z"/>
      <path class="cls-1" d="M550.64,22.24h-15.86V6.98h15.86v15.26ZM549.21,116.14h-13.01V37.35h13.01v78.79Z"/>
      <path class="cls-1" d="M642.96,76.67c0,25.44-14.28,41.48-34.9,41.48s-34.74-15.73-34.74-41.01,14.28-41.48,34.9-41.48,34.74,15.57,34.74,41.01ZM586.49,76.82c0,20.35,8.09,31.61,21.57,31.61s21.73-11.1,21.73-31.61-8.09-31.46-21.57-31.46-21.73,11.26-21.73,31.46Z"/>
    </g>
  </g>
</svg>